<?xml version="1.0" encoding="utf-8"?>
<!-- Generator: Adobe Illustrator 14.0.0, SVG Export Plug-In . SVG Version: 6.00 Build 43363)  -->
<!DOCTYPE svg PUBLIC "-//W3C//DTD SVG 1.1//EN" "http://www.w3.org/Graphics/SVG/1.1/DTD/svg11.dtd">
<svg version="1.1" id="Layer_1" xmlns="http://www.w3.org/2000/svg" xmlns:xlink="http://www.w3.org/1999/xlink" x="0px" y="0px"
	 width="100px" height="55.25px" viewBox="0 0 100 55.25" enable-background="new 0 0 100 55.25" xml:space="preserve">
<g>
	<g>
		<g>
			<path d="M50,52.586c-10.874,0-21.106-2.568-28.813-7.23C13.38,40.631,9.081,34.315,9.081,27.572
				c0-6.744,4.299-13.059,12.107-17.783C28.894,5.126,39.126,2.559,50,2.559c10.875,0,21.107,2.567,28.813,7.23
				c7.809,4.724,12.107,11.039,12.107,17.783c0,6.743-4.299,13.059-12.107,17.783C71.107,50.018,60.875,52.586,50,52.586L50,52.586z
				"/>
		</g>
		<g>
			<path fill="#919896" d="M50,3.202c22.245,0,40.277,10.911,40.277,24.371c0,13.46-18.032,24.371-40.277,24.371
				c-22.244,0-40.277-10.911-40.277-24.371C9.723,14.113,27.756,3.202,50,3.202 M50,1.916c-10.989,0-21.339,2.602-29.146,7.325
				C12.848,14.085,8.438,20.596,8.438,27.572c0,6.978,4.41,13.488,12.417,18.332c7.806,4.724,18.156,7.324,29.146,7.324
				s21.34-2.601,29.146-7.324c8.007-4.844,12.417-11.354,12.417-18.332c0-6.977-4.41-13.487-12.417-18.332
				C71.34,4.517,60.989,1.916,50,1.916L50,1.916z"/>
		</g>
	</g>
	<g>
		<path fill="#FFFFFF" d="M27.761,31.931c-5.026-0.021-9.102-4.075-9.102-9.102c0-5.027,4.076-9.102,9.102-9.102
			c0,0,3.545-0.289,6.404,2.056c0,0,0.226,0.161,0,0.547c-0.225,0.385-1.831,2.441-1.831,2.441s-0.126,0.187-0.514-0.064
			c-0.389-0.251-0.129-0.068-0.129-0.068c-0.915-0.69-2.052-1.099-3.286-1.099c-3.017,0-5.462,2.444-5.462,5.461
			c0,1.161,0.362,2.236,0.98,3.121c0,0,1.986,3.411,7.094,1.355v-2.548h-3.599v-3.01c0,0-0.193-0.321,0.579-0.321
			c0.77,0,5.75,0,5.75,0s1.125,0.235,1.286,1.226v6.324C35.033,29.147,32.955,31.952,27.761,31.931z"/>
	</g>
	<g>
		<path fill="none" d="M51.299,24.67"/>
	</g>
	<g>
		<path fill="#FFFFFF" d="M68.603,14.113v17.519h4.069v-5.873l2.313,3.73c0,0,1.156,2.526,4.025,2.441
			c2.871-0.086,3.642-1.327,3.642-1.327l-1.413-2.613c0,0-1.457,1.029-2.57-0.171l-2.013-3.149l4.197-5.503
			c0,0,0.427-0.514-0.3-0.556l-4.197,0.042l-3.727,5.526v-9.038c0,0,0.128-1.028-1.286-1.028
			C69.931,14.113,68.603,14.113,68.603,14.113z"/>
	</g>
	<g>
		<path fill="#FFFFFF" d="M51.084,25.121c0.043-1.585-0.214-2.656-0.214-2.656c-0.43-2.205-2.798-3.833-2.798-3.833
			c-1.154-0.772-2.541-1.223-4.034-1.223c-4.009,0-7.26,3.25-7.26,7.261c0,4.009,3.25,7.21,7.26,7.26
			c3.32,0.043,4.99-1.412,5.332-1.799c0.343-0.385-0.084-0.6-0.084-0.6s-1.243-1.113-1.67-1.499s-0.943,0.042-0.943,0.042
			c-5.268,2.013-5.956-2.142-5.956-2.142l9.34,0.043C51.298,25.935,51.084,25.121,51.084,25.121z M40.716,23.48
			c0-1.451,1.507-2.625,3.364-2.625c1.858,0,3.364,1.175,3.364,2.625H40.716z"/>
	</g>
	<g>
		<path fill="#FFFFFF" d="M66.824,25.121c0.043-1.585-0.214-2.656-0.214-2.656c-0.43-2.205-2.798-3.833-2.798-3.833
			c-1.153-0.772-2.541-1.223-4.033-1.223c-4.009,0-7.26,3.25-7.26,7.261c0,4.009,3.251,7.21,7.26,7.26
			c3.319,0.043,4.989-1.412,5.331-1.799c0.344-0.385-0.084-0.6-0.084-0.6s-1.243-1.113-1.671-1.499
			c-0.429-0.386-0.943,0.042-0.943,0.042c-5.268,2.013-5.955-2.142-5.955-2.142l9.339,0.043
			C67.039,25.935,66.824,25.121,66.824,25.121z M56.457,23.48c0-1.451,1.506-2.625,3.363-2.625s3.364,1.175,3.364,2.625H56.457z"/>
	</g>
	<g>
		<path fill="#F16423" d="M51.09,42.672c1.297,0,2.346-1.072,2.346-2.394v-4.256c0,0,0.064-0.365-0.321-0.375
			c-0.386-0.011-0.835,0-0.835,0s-0.385-0.044-0.385,0.503c0,0.546,0,4.016,0,4.016s-0.033,1.156-1.222,1.156h-0.831
			c-1.189,0-1.22-1.156-1.22-1.156s0-3.47,0-4.016c0-0.547-0.387-0.503-0.387-0.503s-0.449-0.011-0.834,0
			c-0.386,0.01-0.321,0.375-0.321,0.375v4.256c0,1.321,1.049,2.394,2.345,2.394H51.09z"/>
	</g>
	<g>
		<path fill="#F16423" d="M68.313,35.647h-3.405c0,0-0.354,0.021-0.354,0.438v5.942c0,0-0.032,0.322,0.418,0.322
			c0.449,0,3.341,0,3.341,0c1.366,0,2.474-1.072,2.474-2.395V38.04C70.787,36.719,69.68,35.647,68.313,35.647z M69.277,39.706
			c0,0.857-0.577,1.552-1.289,1.552c0,0-1.505,0-1.74,0c-0.233,0-0.216-0.208-0.216-0.208v-3.854c0-0.271,0.183-0.286,0.183-0.286
			h1.773c0.712,0,1.289,0.696,1.289,1.553V39.706z"/>
	</g>
	<g>
		<path fill="#F16423" d="M44.67,42.896l-0.837-1.158c0.361-0.409,0.58-0.944,0.58-1.53v-2.184c0-1.291-1.061-2.335-2.372-2.335
			H40.07c-1.31,0-2.372,1.044-2.372,2.335v2.184c0,1.29,1.062,2.335,2.372,2.335h1.971c0.179,0,0.353-0.02,0.521-0.057
			c0,0,0.792,0.988,1.08,1.341c0.29,0.354,0.514,0,0.514,0s0.193-0.064,0.514-0.385C44.991,43.121,44.67,42.896,44.67,42.896z
			 M43.002,39.799c0,0.852-0.69,1.543-1.542,1.543h-0.867c-0.853,0-1.542-0.691-1.542-1.543v-1.285c0-0.851,0.69-1.541,1.542-1.541
			h0.867c0.852,0,1.542,0.69,1.542,1.541V39.799z"/>
	</g>
	<g>
		<path fill="#F16423" d="M60.025,36.086c-0.225-0.546-0.514-0.444-0.514-0.444s-0.579-0.005-0.9,0
			c-0.321,0.007-0.481,0.188-0.481,0.188l-2.603,6.521c0,0,1.028,0.032,1.317,0s0.321-0.322,0.321-0.322l0.386-0.739h2.859
			c0,0,0.16,0.354,0.354,0.804c0.191,0.45,0.352,0.258,0.352,0.258h1.318C62.435,42.351,60.25,36.632,60.025,36.086z M59.679,40.23
			c-0.715,0-1.292,0-1.292,0s-0.579,0.011-0.29-0.611l0.611-1.605c0,0,0.257-0.706,0.514,0c0.258,0.707,0.707,1.639,0.707,1.639
			S60.25,40.23,59.679,40.23z"/>
	</g>
	<g>
		<path fill="#F16423" d="M32.496,41.459c1.074,0,1.301-0.257,1.328-0.854c0.025-0.603-1.093-0.75-1.81-0.856
			c-0.718-0.106-2.891-0.215-2.613-2.196s1.403-2.13,2.945-2.13c1.542,0,2.452,0.545,2.452,0.545
			c0.471,0.215,0.192,0.601,0.192,0.601s0,0-0.299,0.449c-0.299,0.45-0.6,0.375-0.6,0.375l-0.471-0.214c0,0-2.44-0.932-2.602,0.257
			c0,0-0.321,1.027,2.216,1.027c2.539,0,2.314,1.992,2.314,1.992s-0.033,2.184-2.603,2.217c-2.57,0.032-3.174-0.512-3.501-0.771
			c-0.238-0.188-0.257-0.097,0-0.515l0.343-0.589c0.257-0.438,0.503-0.096,0.503-0.096s0.424,0.598,1.212,0.694
			C32.287,41.489,32.496,41.459,32.496,41.459z"/>
	</g>
	<g>
		<path fill="#F16423" d="M72.602,35.893H71.43c-0.071,0-0.129-0.057-0.129-0.128s0.058-0.128,0.129-0.128h1.172
			c0.071,0,0.128,0.057,0.128,0.128S72.673,35.893,72.602,35.893L72.602,35.893z"/>
	</g>
	<g>
		<path fill="#F16423" d="M72.016,37.322c-0.071,0-0.129-0.057-0.129-0.128v-1.43c0-0.071,0.058-0.128,0.129-0.128
			c0.07,0,0.128,0.057,0.128,0.128v1.43C72.144,37.266,72.086,37.322,72.016,37.322L72.016,37.322z"/>
	</g>
	<g>
		<path fill="#F16423" d="M74.465,37.322c-0.071,0-0.129-0.057-0.129-0.128v-0.844l-0.413,0.897
			c-0.021,0.045-0.065,0.073-0.114,0.074c-0.063-0.002-0.096-0.027-0.117-0.07l-0.464-0.938v0.88c0,0.071-0.057,0.128-0.128,0.128
			s-0.129-0.057-0.129-0.128v-1.43c0-0.061,0.042-0.111,0.101-0.126c0.057-0.013,0.117,0.016,0.144,0.068l0.587,1.188l0.546-1.184
			c0.025-0.056,0.084-0.086,0.145-0.073c0.06,0.014,0.101,0.064,0.101,0.126v1.43C74.593,37.266,74.536,37.322,74.465,37.322
			L74.465,37.322z"/>
	</g>
</g>
</svg>
