<?xml version="1.0" encoding="utf-8"?>
<!-- Generator: Adobe Illustrator 14.0.0, SVG Export Plug-In . SVG Version: 6.00 Build 43363)  -->
<!DOCTYPE svg PUBLIC "-//W3C//DTD SVG 1.1//EN" "http://www.w3.org/Graphics/SVG/1.1/DTD/svg11.dtd">
<svg version="1.1" id="Layer_1" xmlns="http://www.w3.org/2000/svg" xmlns:xlink="http://www.w3.org/1999/xlink" x="0px" y="0px"
	 width="640px" height="480px" viewBox="0 0 640 480" enable-background="new 0 0 640 480" xml:space="preserve">
<g>
	<g>
		<g>
			<path d="M319.738,336.611c-42.313,0-82.129-9.992-112.115-28.137c-30.379-18.382-47.109-42.956-47.109-69.195
				s16.73-50.813,47.109-69.195c29.986-18.144,69.803-28.137,112.115-28.137s82.129,9.993,112.115,28.137
				c30.379,18.382,47.109,42.956,47.109,69.195s-16.73,50.813-47.109,69.195C401.867,326.619,362.051,336.611,319.738,336.611
				L319.738,336.611z"/>
		</g>
		<g>
			<path fill="#919896" d="M319.738,144.447c86.557,0,156.725,42.458,156.725,94.832c0,52.375-70.168,94.832-156.725,94.832
				s-156.725-42.457-156.725-94.832C163.014,186.905,233.182,144.447,319.738,144.447 M319.738,139.447
				c-42.762,0-83.039,10.121-113.41,28.498c-31.156,18.852-48.315,44.186-48.315,71.334c0,27.148,17.159,52.482,48.315,71.335
				c30.371,18.376,70.647,28.497,113.41,28.497c42.763,0,83.039-10.121,113.409-28.497c31.157-18.853,48.315-44.187,48.315-71.335
				c0-27.148-17.158-52.482-48.315-71.334C402.776,149.568,362.5,139.447,319.738,139.447L319.738,139.447z"/>
		</g>
	</g>
	<g>
		<path fill="#FFFFFF" d="M233.205,256.239c-19.561-0.079-35.417-15.856-35.417-35.416c0-19.561,15.856-35.417,35.417-35.417
			c0,0,13.791-1.124,24.916,8.001c0,0,0.875,0.625,0,2.125s-7.125,9.5-7.125,9.5s-0.487,0.729-2-0.25s-0.503-0.263-0.503-0.263
			c-3.558-2.687-7.986-4.278-12.788-4.278c-11.736,0-21.25,9.514-21.25,21.25c0,4.516,1.408,8.702,3.81,12.145
			c0,0,7.731,13.271,27.606,5.271v-9.919h-14v-11.706c0,0-0.75-1.25,2.25-1.25s22.375,0,22.375,0s4.375,0.912,5,4.769v24.606
			C261.496,245.407,253.414,256.321,233.205,256.239z"/>
	</g>
	<g>
		<path fill="none" d="M324.792,227.987"/>
	</g>
	<g>
		<path fill="#FFFFFF" d="M392.121,186.907v68.167h15.834v-22.848l9,14.514c0,0,4.499,9.831,15.666,9.499s14.167-5.165,14.167-5.165
			l-5.5-10.167c0,0-5.667,3.999-10-0.667l-7.833-12.253l16.333-21.413c0,0,1.666-2-1.167-2.167l-16.333,0.167l-14.5,21.5v-35.167
			c0,0,0.5-4-5-4S392.121,186.907,392.121,186.907z"/>
	</g>
	<g>
		<path fill="#FFFFFF" d="M323.955,229.74c0.167-6.167-0.834-10.333-0.834-10.333c-1.671-8.58-10.887-14.916-10.887-14.916
			c-4.489-3.005-9.888-4.757-15.695-4.757c-15.603,0-28.252,12.649-28.252,28.253c0,15.603,12.65,28.053,28.252,28.252
			c12.918,0.165,19.416-5.499,20.749-6.999s-0.333-2.333-0.333-2.333s-4.834-4.333-6.5-5.833s-3.667,0.166-3.667,0.166
			c-20.5,7.833-23.175-8.333-23.175-8.333l36.342,0.167C324.789,232.908,323.955,229.74,323.955,229.74z M283.613,223.357
			c0-5.643,5.859-10.217,13.088-10.217c7.228,0,13.087,4.574,13.087,10.217H283.613z"/>
	</g>
	<g>
		<path fill="#FFFFFF" d="M385.205,229.74c0.167-6.167-0.834-10.333-0.834-10.333c-1.671-8.58-10.887-14.916-10.887-14.916
			c-4.489-3.005-9.888-4.757-15.695-4.757c-15.603,0-28.252,12.649-28.252,28.253c0,15.603,12.65,28.053,28.252,28.252
			c12.918,0.165,19.416-5.499,20.749-6.999s-0.333-2.333-0.333-2.333s-4.834-4.333-6.5-5.833s-3.667,0.166-3.667,0.166
			c-20.5,7.833-23.175-8.333-23.175-8.333l36.342,0.167C386.039,232.908,385.205,229.74,385.205,229.74z M344.863,223.357
			c0-5.643,5.859-10.217,13.088-10.217c7.228,0,13.087,4.574,13.087,10.217H344.863z"/>
	</g>
	<g>
		<path fill="#F16423" d="M323.98,298.032c5.04,0,9.125-4.169,9.125-9.313v-16.563c0,0,0.25-1.42-1.25-1.46s-3.25,0-3.25,0
			s-1.5-0.165-1.5,1.96s0,15.625,0,15.625s-0.125,4.5-4.75,4.5h-3.234c-4.625,0-4.75-4.5-4.75-4.5s0-13.5,0-15.625
			s-1.5-1.96-1.5-1.96s-1.75-0.04-3.25,0s-1.25,1.46-1.25,1.46v16.563c0,5.144,4.085,9.313,9.125,9.313H323.98z"/>
	</g>
	<g>
		<path fill="#F16423" d="M390.996,270.697h-13.25c0,0-1.375,0.085-1.375,1.71v23.125c0,0-0.125,1.25,1.625,1.25s13,0,13,0
			c5.317,0,9.626-4.169,9.626-9.313v-7.46C400.622,274.866,396.313,270.697,390.996,270.697z M394.746,286.492
			c0,3.336-2.243,6.04-5.012,6.04c0,0-5.858,0-6.77,0s-0.846-0.811-0.846-0.811v-14.998c0-1.055,0.715-1.109,0.715-1.109h6.9
			c2.769,0,5.012,2.704,5.012,6.04V286.492z"/>
	</g>
	<g>
		<path fill="#F16423" d="M298.996,298.907l-3.257-4.506c1.406-1.595,2.258-3.677,2.258-5.955v-8.498
			c0-5.019-4.131-9.086-9.229-9.086h-7.67c-5.097,0-9.228,4.067-9.228,9.086v8.498c0,5.019,4.131,9.086,9.228,9.086h7.67
			c0.695,0,1.373-0.076,2.024-0.22c0,0,3.078,3.845,4.203,5.22s2,0,2,0s0.75-0.25,2-1.5S298.996,298.907,298.996,298.907z
			 M292.509,286.855c0,3.313-2.687,6-6,6h-3.375c-3.313,0-6-2.687-6-6v-5c0-3.313,2.687-6,6-6h3.375c3.313,0,6,2.687,6,6V286.855z"
			/>
	</g>
	<g>
		<path fill="#F16423" d="M358.746,272.407c-0.875-2.125-2-1.728-2-1.728s-2.25-0.022-3.5,0s-1.875,0.728-1.875,0.728
			l-10.125,25.375c0,0,4,0.125,5.125,0s1.25-1.25,1.25-1.25l1.5-2.875h11.125c0,0,0.625,1.375,1.375,3.125s1.375,1,1.375,1h5.125
			C368.121,296.782,359.621,274.532,358.746,272.407z M357.398,288.532c-2.78,0-5.027,0-5.027,0s-2.25,0.043-1.125-2.375l2.375-6.25
			c0,0,1-2.75,2,0s2.75,6.375,2.75,6.375S359.621,288.532,357.398,288.532z"/>
	</g>
	<g>
		<path fill="#F16423" d="M251.625,293.313c4.177,0,5.063-1,5.163-3.321c0.102-2.344-4.25-2.917-7.042-3.333
			s-11.25-0.834-10.167-8.542s5.459-8.292,11.459-8.292s9.541,2.125,9.541,2.125c1.833,0.833,0.75,2.334,0.75,2.334s0,0-1.166,1.75
			s-2.334,1.458-2.334,1.458l-1.833-0.834c0,0-9.5-3.624-10.125,1c0,0-1.25,4,8.625,4s9,7.75,9,7.75s-0.125,8.5-10.125,8.625
			s-12.349-1.987-13.625-3c-0.924-0.733-1-0.375,0-2l1.333-2.291c1-1.708,1.959-0.375,1.959-0.375s1.649,2.321,4.712,2.696
			S251.625,293.313,251.625,293.313z"/>
	</g>
	<g>
		<path fill="#F16423" d="M407.684,271.657h-4.563c-0.276,0-0.5-0.224-0.5-0.5s0.224-0.5,0.5-0.5h4.563c0.276,0,0.5,0.224,0.5,0.5
			S407.96,271.657,407.684,271.657L407.684,271.657z"/>
	</g>
	<g>
		<path fill="#F16423" d="M405.402,277.22c-0.276,0-0.5-0.224-0.5-0.5v-5.563c0-0.276,0.224-0.5,0.5-0.5s0.5,0.224,0.5,0.5v5.563
			C405.902,276.996,405.679,277.22,405.402,277.22L405.402,277.22z"/>
	</g>
	<g>
		<path fill="#F16423" d="M414.934,277.22c-0.276,0-0.5-0.224-0.5-0.5v-3.282l-1.608,3.491c-0.081,0.175-0.255,0.288-0.447,0.291
			c-0.239-0.007-0.37-0.105-0.455-0.278l-1.802-3.645v3.423c0,0.276-0.224,0.5-0.5,0.5s-0.5-0.224-0.5-0.5v-5.563
			c0-0.232,0.16-0.434,0.386-0.487c0.228-0.054,0.459,0.058,0.563,0.266l2.286,4.624l2.124-4.611
			c0.098-0.214,0.326-0.33,0.562-0.279c0.229,0.05,0.393,0.253,0.393,0.488v5.563C415.434,276.996,415.21,277.22,414.934,277.22
			L414.934,277.22z"/>
	</g>
</g>
</svg>
